REM DIRINDEX 1\2,1\3,1\4,1\5\6,1\5\7,1\8
REM DIRNAME cjc115,folder01,folder02,folder03,folder04,folder05,folder06,folder07
TITLE ""
FILE "068 Åy068ÅzUnit4 (0769 assessment_0780 incorporate).mp3" MP3
  TRACK 01 AUDIO
    TITLE "0:"
    INDEX 01 00:00:00
  TRACK 02 AUDIO
    TITLE "2:cjc115_2650"
    INDEX 01 00:00:07
  TRACK 03 AUDIO
    TITLE "0:"
    INDEX 01 00:01:40
  TRACK 04 AUDIO
    TITLE "3:cjc115_2651"
    INDEX 01 00:01:44
  TRACK 05 AUDIO
    TITLE "0:"
    INDEX 01 00:02:55
  TRACK 06 AUDIO
    TITLE "4:cjc115_2652"
    INDEX 01 00:02:63
  TRACK 07 AUDIO
    TITLE "0:"
    INDEX 01 00:07:56
  TRACK 08 AUDIO
    TITLE "2:cjc115_2653"
    INDEX 01 00:08:64
  TRACK 09 AUDIO
    TITLE "0:"
    INDEX 01 00:10:18
  TRACK 10 AUDIO
    TITLE "3:cjc115_2654"
    INDEX 01 00:10:21
  TRACK 11 AUDIO
    TITLE "0:"
    INDEX 01 00:12:07
  TRACK 12 AUDIO
    TITLE "4:cjc115_2655"
    INDEX 01 00:12:12
  TRACK 13 AUDIO
    TITLE "0:"
    INDEX 01 00:15:36
  TRACK 14 AUDIO
    TITLE "2:cjc115_2656"
    INDEX 01 00:16:44
  TRACK 15 AUDIO
    TITLE "0:"
    INDEX 01 00:17:55
  TRACK 16 AUDIO
    TITLE "3:cjc115_2657"
    INDEX 01 00:17:65
  TRACK 17 AUDIO
    TITLE "0:"
    INDEX 01 00:20:55
  TRACK 18 AUDIO
    TITLE "4:cjc115_2658"
    INDEX 01 00:20:61
  TRACK 19 AUDIO
    TITLE "0:"
    INDEX 01 00:25:45
  TRACK 20 AUDIO
    TITLE "2:cjc115_2659"
    INDEX 01 00:26:52
  TRACK 21 AUDIO
    TITLE "0:"
    INDEX 01 00:28:19
  TRACK 22 AUDIO
    TITLE "3:cjc115_2660"
    INDEX 01 00:28:27
  TRACK 23 AUDIO
    TITLE "0:"
    INDEX 01 00:29:64
  TRACK 24 AUDIO
    TITLE "4:cjc115_2661"
    INDEX 01 00:29:74
  TRACK 25 AUDIO
    TITLE "0:"
    INDEX 01 00:33:30
  TRACK 26 AUDIO
    TITLE "2:cjc115_2662"
    INDEX 01 00:34:42
  TRACK 27 AUDIO
    TITLE "0:"
    INDEX 01 00:35:64
  TRACK 28 AUDIO
    TITLE "3:cjc115_2663"
    INDEX 01 00:35:74
  TRACK 29 AUDIO
    TITLE "0:"
    INDEX 01 00:38:71
  TRACK 30 AUDIO
    TITLE "4:cjc115_2664"
    INDEX 01 00:39:05
  TRACK 31 AUDIO
    TITLE "0:"
    INDEX 01 00:43:68
  TRACK 32 AUDIO
    TITLE "2:cjc115_2665"
    INDEX 01 00:45:02
  TRACK 33 AUDIO
    TITLE "0:"
    INDEX 01 00:46:06
  TRACK 34 AUDIO
    TITLE "3:cjc115_2666"
    INDEX 01 00:46:11
  TRACK 35 AUDIO
    TITLE "0:"
    INDEX 01 00:48:04
  TRACK 36 AUDIO
    TITLE "4:cjc115_2667"
    INDEX 01 00:48:06
  TRACK 37 AUDIO
    TITLE "0:"
    INDEX 01 00:51:73
  TRACK 38 AUDIO
    TITLE "2:cjc115_2668"
    INDEX 01 00:53:04
  TRACK 39 AUDIO
    TITLE "0:"
    INDEX 01 00:54:34
  TRACK 40 AUDIO
    TITLE "3:cjc115_2669"
    INDEX 01 00:54:42
  TRACK 41 AUDIO
    TITLE "0:"
    INDEX 01 00:56:14
  TRACK 42 AUDIO
    TITLE "4:cjc115_2670"
    INDEX 01 00:56:24
  TRACK 43 AUDIO
    TITLE "0:"
    INDEX 01 01:01:44
  TRACK 44 AUDIO
    TITLE "2:cjc115_2671"
    INDEX 01 01:02:54
  TRACK 45 AUDIO
    TITLE "0:"
    INDEX 01 01:03:61
  TRACK 46 AUDIO
    TITLE "3:cjc115_2672"
    INDEX 01 01:04:00
  TRACK 47 AUDIO
    TITLE "0:"
    INDEX 01 01:06:06
  TRACK 48 AUDIO
    TITLE "4:cjc115_2673"
    INDEX 01 01:06:10
  TRACK 49 AUDIO
    TITLE "0:"
    INDEX 01 01:09:34
  TRACK 50 AUDIO
    TITLE "2:cjc115_2674"
    INDEX 01 01:10:45
  TRACK 51 AUDIO
    TITLE "0:"
    INDEX 01 01:12:01
  TRACK 52 AUDIO
    TITLE "3:cjc115_2675"
    INDEX 01 01:12:09
  TRACK 53 AUDIO
    TITLE "0:"
    INDEX 01 01:14:02
  TRACK 54 AUDIO
    TITLE "4:cjc115_2676"
    INDEX 01 01:14:12
  TRACK 55 AUDIO
    TITLE "0:"
    INDEX 01 01:17:33
  TRACK 56 AUDIO
    TITLE "2:cjc115_2677"
    INDEX 01 01:18:45
  TRACK 57 AUDIO
    TITLE "0:"
    INDEX 01 01:20:12
  TRACK 58 AUDIO
    TITLE "3:cjc115_2678"
    INDEX 01 01:20:22
  TRACK 59 AUDIO
    TITLE "0:"
    INDEX 01 01:21:61
  TRACK 60 AUDIO
    TITLE "4:cjc115_2679"
    INDEX 01 01:21:70
  TRACK 61 AUDIO
    TITLE "0:"
    INDEX 01 01:25:74
  TRACK 62 AUDIO
    TITLE "2:cjc115_2680"
    INDEX 01 01:27:06
  TRACK 63 AUDIO
    TITLE "0:"
    INDEX 01 01:28:29
  TRACK 64 AUDIO
    TITLE "3:cjc115_2681"
    INDEX 01 01:28:37
  TRACK 65 AUDIO
    TITLE "0:"
    INDEX 01 01:30:52
  TRACK 66 AUDIO
    TITLE "4:cjc115_2682"
    INDEX 01 01:30:62
  TRACK 67 AUDIO
    TITLE "0:"
    INDEX 01 01:35:43
  TRACK 68 AUDIO
    TITLE "2:cjc115_2683"
    INDEX 01 01:36:52
  TRACK 69 AUDIO
    TITLE "0:"
    INDEX 01 01:38:10
  TRACK 70 AUDIO
    TITLE "3:cjc115_2684"
    INDEX 01 01:38:20
  TRACK 71 AUDIO
    TITLE "0:"
    INDEX 01 01:39:41
  TRACK 72 AUDIO
    TITLE "4:cjc115_2685"
    INDEX 01 01:39:49
  TRACK 73 AUDIO
    TITLE "0:"
    INDEX 01 01:45:10
